<?xml version="1.0" encoding="UTF-8" standalone="no"?>
<svg width="207px" height="171px" viewBox="0 0 207 171" version="1.1" xmlns="http://www.w3.org/2000/svg" xmlns:xlink="http://www.w3.org/1999/xlink" xmlns:sketch="http://www.bohemiancoding.com/sketch/ns">
    <!-- Generator: Sketch 3.4 (15588) - http://www.bohemiancoding.com/sketch -->
    <title>marsh-painting</title>
    <desc>Created with Sketch.</desc>
    <defs></defs>
    <g id="Page-1" stroke="none" stroke-width="1" fill="none" fill-rule="evenodd" sketch:type="MSPage">
        <g id="marsh-painting" sketch:type="MSLayerGroup" transform="translate(3.000000, 4.000000)">
            <circle id="Oval" fill="#FFFFFF" sketch:type="MSShapeGroup" cx="101.2" cy="81.3" r="80.6"></circle>
            <path d="M101.8,163 C56.9,163 20.3,126.4 20.3,81.5 C20.3,36.6 56.9,0 101.8,0 C146.7,0 183.3,36.6 183.3,81.5 C183.3,126.4 146.7,163 101.8,163 L101.8,163 Z M101.8,3 C58.5,3 23.3,38.2 23.3,81.5 C23.3,124.8 58.5,160 101.8,160 C145.1,160 180.3,124.8 180.3,81.5 C180.3,38.2 145.1,3 101.8,3 L101.8,3 Z" id="Shape" fill="#FF8908" sketch:type="MSShapeGroup"></path>
            <path d="M101.8,4.2 C59.2,4.2 24.5,38.9 24.5,81.5 C24.5,124.1 59.2,158.8 101.8,158.8 C144.4,158.8 179.1,124.1 179.1,81.5 C179.1,38.9 144.4,4.2 101.8,4.2 L101.8,4.2 Z M101.8,157.8 C59.7,157.8 25.5,123.6 25.5,81.5 C25.5,39.4 59.7,5.2 101.8,5.2 C143.9,5.2 178.1,39.4 178.1,81.5 C178.1,123.6 143.9,157.8 101.8,157.8 L101.8,157.8 Z" id="Shape" fill="#1C4A88" sketch:type="MSShapeGroup"></path>
            <g id="Group" transform="translate(72.000000, 123.000000)" fill="#314354" sketch:type="MSShapeGroup">
                <path d="M5.5,14.1 C5.8,13.3 5.5,12.8 4.7,12.4 L5.1,11.5 L9.6,13.2 C12.1,14.1 13.5,15.4 12.5,18.1 C11.8,19.9 10.2,20.6 7.5,19.6 L5.9,19 L4.9,21.6 C4.6,22.4 4.9,22.9 5.7,23.3 L5.3,24.2 L0.9,22.6 L1.3,21.7 C2.2,22 2.7,21.8 3,20.9 L5.5,14.1 L5.5,14.1 Z M6.3,17.9 C6.5,18 6.8,18.1 7,18.2 C9.2,19 10,18.4 10.5,17 C11,15.7 10.6,14.7 9.1,14.2 C8,13.8 7.6,14.1 7.4,14.7 L6.3,17.9 L6.3,17.9 Z" id="Shape"></path>
                <path d="M10,24.9 C10.8,24.8 11.1,24.6 11.9,23.4 L17,15.2 L18.7,15.6 L20.1,25.5 C20.3,26.7 20.4,27 21.2,27.3 L21,28.3 L16.4,27.3 L16.6,26.3 C17.6,26.5 18,26.4 18,26 L18,25.3 L17.7,23.1 L13.9,22.3 L13,23.8 C12.7,24.3 12.6,24.6 12.6,24.7 C12.5,25 12.8,25.4 13.6,25.7 L13.4,26.7 L9.7,25.9 L10,24.9 L10,24.9 Z M14.6,21.3 L17.6,21.9 L17,17.2 L14.6,21.3 L14.6,21.3 Z" id="Shape"></path>
                <path d="M22.6,27.2 C23.5,27.2 23.9,26.9 24,26 L24.5,18.8 C24.6,17.9 24.2,17.5 23.3,17.4 L23.4,16.4 L28.1,16.7 L28,17.7 C27.1,17.7 26.7,18 26.6,18.9 L26.1,26.1 C26,27 26.4,27.4 27.3,27.5 L27.2,28.5 L22.5,28.2 L22.6,27.2 L22.6,27.2 Z" id="Shape"></path>
                <path d="M29.9,27.8 C30.8,27.7 31.2,27.3 31.1,26.4 L30.6,19.2 C30.5,18.3 30.1,18 29.2,18 L29.1,17 L32.9,16.7 L37.4,24.4 L37.4,24.4 L37,18.7 C36.9,17.8 36.5,17.5 35.6,17.5 L35.5,16.5 L39.3,16.2 L39.4,17.2 C38.5,17.3 38.1,17.7 38.2,18.6 L38.9,28.1 L37.6,28.2 L31.8,18.6 L31.8,18.6 L32.4,26.3 C32.5,27.2 32.9,27.5 33.8,27.5 L33.9,28.5 L30.1,28.8 L29.9,27.8 L29.9,27.8 Z" id="Shape"></path>
                <path d="M44.6,26 C45.8,25.7 46,25.3 45.7,24.2 L43.8,16.7 C43.7,16.2 43.5,16.2 43.1,16.3 C42.3,16.5 41.5,17.4 41.2,18.9 L41.1,19.4 L40.3,19.2 L40.5,15.9 L48.3,13.9 L50.1,16.7 L49.5,17.3 L49.2,16.9 C48.2,15.7 47,15.3 46.3,15.5 C45.9,15.6 45.8,15.7 45.9,16.2 L47.8,23.7 C48.1,24.8 48.5,25 49.6,24.7 L49.8,25.7 L44.9,27 L44.6,26 L44.6,26 Z" id="Shape"></path>
                <path d="M53.4,23.5 C54.2,23.1 54.5,22.6 54.1,21.8 L51.4,15.1 C51.1,14.3 50.6,14.1 49.7,14.4 L49.3,13.5 L53.6,11.8 L54,12.7 C53.2,13.1 52.9,13.6 53.3,14.4 L56,21.1 C56.3,21.9 56.8,22.1 57.7,21.8 L58.1,22.7 L53.8,24.4 L53.4,23.5 L53.4,23.5 Z" id="Shape"></path>
                <path d="M59.9,20.9 C60.7,20.4 60.8,19.9 60.4,19.1 L56.8,12.9 C56.3,12.1 55.8,12 55,12.4 L54.5,11.5 L57.8,9.6 L65.2,14.6 L65.2,14.6 L62.3,9.7 C61.8,8.9 61.3,8.8 60.5,9.2 L60,8.3 L63.3,6.4 L63.8,7.3 C63,7.8 62.9,8.3 63.3,9.1 L68.1,17.3 L67,18 L57.6,11.9 L57.6,11.9 L61.4,18.6 C61.9,19.4 62.4,19.5 63.2,19.1 L63.7,20 L60.4,21.9 L59.9,20.9 L59.9,20.9 Z" id="Shape"></path>
                <path d="M76,4.7 C75.4,5.4 75.4,5.8 76.1,6.6 L78.3,9.3 L77.4,10 L76.3,9.3 C76.2,10.7 75.5,11.8 74.7,12.5 C72.3,14.5 69.1,13.5 67,11 C64.9,8.5 64.6,5 66.8,3.1 C67.4,2.6 68.3,2.2 69.4,2.1 L69.2,1.4 L69.8,0.9 L73.1,3.3 L72.6,4.1 C70.4,2.9 68.7,3.1 67.8,3.9 C66.4,5.1 66.8,7.2 68.7,9.6 C71,12.3 73,12.4 74.2,11.4 C75.3,10.5 75.6,9.1 74.5,7.8 C74,7.2 73.4,7 72.6,7.5 L72,6.7 L75.4,3.9 L76,4.7 L76,4.7 Z" id="Shape"></path>
            </g>
            <path d="M101.8,133.8 C73,133.8 49.5,110.3 49.5,81.5 C49.5,52.7 73,29.2 101.8,29.2 C130.6,29.2 154.1,52.7 154.1,81.5 C154.1,110.3 130.6,133.8 101.8,133.8 L101.8,133.8 Z M101.8,32.2 C74.6,32.2 52.5,54.3 52.5,81.5 C52.5,108.7 74.6,130.8 101.8,130.8 C129,130.8 151.1,108.7 151.1,81.5 C151.1,54.3 129,32.2 101.8,32.2 L101.8,32.2 Z" id="Shape" fill="#FF8908" sketch:type="MSShapeGroup"></path>
            <g id="Group" transform="translate(34.000000, 11.000000)" fill="#314354" sketch:type="MSShapeGroup">
                <path d="M3.2,49.6 C2.4,49.3 1.9,49.5 1.5,50.3 L0.6,50 L2.3,45.6 C3.2,43.2 4.5,41.8 7.2,42.8 C9,43.5 9.7,45.1 8.7,47.7 L8.1,49.3 L10.7,50.3 C11.5,50.6 12,50.4 12.4,49.6 L13.3,50 L11.7,54.3 L10.8,53.9 C11.1,53.1 10.9,52.6 10,52.2 L3.2,49.6 L3.2,49.6 Z M7,48.9 C7.1,48.7 7.2,48.4 7.3,48.2 C8.1,46 7.5,45.2 6.1,44.7 C4.8,44.2 3.8,44.6 3.3,46.1 C2.9,47.2 3.2,47.5 3.8,47.8 L7,48.9 L7,48.9 Z" id="Shape"></path>
                <path d="M13.1,47 C13.2,46.3 13.2,45.9 12.2,44.7 L5.8,37.5 L6.6,36 L16.4,37.7 C17.6,37.9 17.9,37.8 18.4,37.2 L19.3,37.7 L17.1,41.7 L16.2,41.2 C16.7,40.3 16.6,39.9 16.4,39.8 C16.3,39.7 16,39.7 15.7,39.6 L13.5,39.2 L11.7,42.5 L12.9,43.8 C13.3,44.2 13.5,44.4 13.7,44.5 C14,44.7 14.4,44.5 14.9,43.8 L15.8,44.3 L14,47.5 L13.1,47 L13.1,47 Z M11,41.5 L12.4,38.9 L7.8,38.1 L11,41.5 L11,41.5 Z" id="Shape"></path>
                <path d="M18.4,37.3 C18.9,36.6 18.9,36 18.2,35.5 L12.6,31 C11.9,30.4 11.4,30.5 10.8,31.2 L10,30.6 L13.5,26.3 C15.3,24 17,24.4 18.2,25.4 C19.6,26.5 19.7,28 19.1,29.3 L23.1,29.7 C24,29.8 24.3,29.8 24.9,29.3 L25.7,29.9 L24,32 L17.8,31.2 L17,32.1 L19.4,34 C20.1,34.6 20.6,34.5 21.2,33.8 L22,34.4 L19.2,38 L18.4,37.3 L18.4,37.3 Z M16.2,31.4 L16.8,30.6 C18.1,29 18,28.1 16.8,27.1 C15.9,26.4 14.8,26.3 13.8,27.6 C13,28.6 13,28.9 13.8,29.5 L16.2,31.4 L16.2,31.4 Z" id="Shape"></path>
                <path d="M24.9,29.3 C25.5,28.7 25.6,28.2 25,27.5 L20.3,22 C19.7,21.3 19.2,21.3 18.5,21.9 L17.8,21.1 L21.4,18 L22.1,18.8 C21.2,19.6 21.2,20 21.9,20.8 L23.9,23.1 L24.1,18.8 C24.1,18.3 24.1,18 23.9,17.8 C23.7,17.6 23.4,17.6 22.7,18.1 L22,17.3 L25.6,14.2 L26.3,15 C25.6,15.7 25.2,16.9 25.1,18.8 L25,20.3 L29,21.5 C31.5,22.3 32.2,22.5 33.2,21.8 L33.9,22.6 L30,26.2 L29.3,25.4 C30,24.7 30.2,24.4 29.9,24.1 C29.8,24 29.7,23.9 29.4,23.8 L25,22.4 L24.9,24.3 L26.4,26 C27.2,27 27.8,26.8 28.5,26.2 L29.2,27 L25.5,30 L24.9,29.3 L24.9,29.3 Z" id="Shape"></path>
                <path d="M39,6.5 L39.7,6.2 L42.3,9.3 L41.7,9.9 C39.9,8.2 38.2,8 37.2,8.5 C35.6,9.3 35.5,11.5 36.9,14.2 C38.2,16.7 40.2,18.1 41.8,17.2 C43,16.6 43.7,15.4 43.7,13.4 L44.7,13.4 C44.9,15.8 43.9,17.5 42.3,18.3 C39.4,19.8 36.4,18.1 34.9,15.1 C33.4,12.1 33.9,8.8 36.5,7.5 C37.2,7.2 38.1,7 39.2,7.2 L39.2,7.2 L39,6.5 L39,6.5 Z" id="Shape"></path>
                <path d="M46,15.3 C46.8,15 47.1,14.5 46.8,13.6 L44.4,6.8 C44.1,5.9 43.6,5.8 42.8,6 L42.5,5.1 L46.8,3.6 L47.1,4.5 C46.3,4.8 46,5.3 46.3,6.2 L48.7,13 C49,13.9 49.5,14 50.3,13.8 L50.6,14.7 L46.3,16.2 L46,15.3 L46,15.3 Z" id="Shape"></path>
                <path d="M52.6,13.1 C53.7,12.8 54,12.5 53.8,11.4 L52.1,3.8 C52,3.3 51.8,3.3 51.5,3.4 C50.7,3.6 49.9,4.5 49.6,6 L49.5,6.4 L48.7,6.2 L49,2.9 L56.7,1.2 L58.3,4.1 L57.7,4.7 L57.4,4.3 C56.5,3.1 55.3,2.6 54.6,2.8 C54.2,2.9 54.1,2.9 54.2,3.4 L55.9,11 C56.1,12.1 56.5,12.3 57.7,12.1 L57.9,13.1 L53,14.2 L52.6,13.1 L52.6,13.1 Z" id="Shape"></path>
                <path d="M61.7,11.5 C63.1,11.2 63.3,11.1 63.2,9.8 L63.1,7.1 L60.6,3 C60.1,2.2 59.5,1.8 58.9,1.8 L58.8,0.8 L63.3,0.6 L63.4,1.6 C62.6,1.6 62.4,1.8 62.4,2.1 C62.4,2.3 62.6,2.6 62.8,2.9 L64.5,5.8 L66,2.6 C66.1,2.3 66.2,2.1 66.2,2 C66.2,1.7 66,1.6 65.2,1.5 L65.1,0.5 L68.9,0.3 L69,1.3 C68.1,1.5 67.7,1.9 66.9,3.4 L65,7.1 L65.2,10 C65.3,10.9 65.5,11.2 66.7,11.2 L66.8,12.2 L61.8,12.5 L61.7,11.5 L61.7,11.5 Z" id="Shape"></path>
                <path d="M68.9,13.7 C69.4,13.2 69.8,12.7 69.9,12.1 C69.8,12.1 69.7,12.2 69.6,12.2 C69,12.2 68.7,11.6 68.7,11 C68.7,10.3 69.3,9.7 69.9,9.7 C70.5,9.7 71,10.3 71,11.3 C71,12.3 70.5,13.2 69.3,14.2 L68.9,13.7 L68.9,13.7 Z" id="Shape"></path>
                <path d="M82.4,3 C81.5,2.9 81.1,3.1 80.9,4 L79.6,9.6 C79.2,11.5 79.9,12.4 81.3,12.7 C83.6,13.2 84,11.8 84.4,10.1 L85.5,5 C85.7,4.1 85.4,3.7 84.5,3.4 L84.7,2.4 L88.2,3.2 L88,4.2 C87.1,4.1 86.7,4.3 86.5,5.2 L85.2,11 C84.8,12.6 83.9,14.6 80.6,13.8 C78.2,13.2 77.1,11.7 77.6,9.5 L79,3.5 C79.2,2.6 78.9,2.2 78,1.9 L78.2,0.9 L82.6,1.9 L82.7,1.9 L82.4,3 L82.4,3 Z" id="Shape"></path>
                <path d="M87.7,14.6 C88.8,15 89.2,14.9 89.6,13.8 L92.5,6.6 C92.7,6.1 92.6,6 92.2,5.9 C91.5,5.6 90.3,5.9 89.2,6.9 L88.9,7.2 L88.4,6.5 L90.5,3.9 L97.8,6.8 L97.5,10.1 L96.7,10.2 L96.7,9.7 C96.6,8.2 95.9,7.1 95.2,6.9 C94.8,6.8 94.7,6.7 94.5,7.2 L91.6,14.4 C91.2,15.4 91.4,15.8 92.4,16.3 L92,17.2 L87.4,15.3 L87.7,14.6 L87.7,14.6 Z" id="Shape"></path>
                <path d="M93.4,16.7 C94.1,16.9 94.5,16.8 95.7,15.9 L103.2,9.8 L104.7,10.7 L102.7,20.5 C102.5,21.7 102.5,22 103.2,22.6 L102.7,23.5 L98.8,21.1 L99.3,20.2 C100.2,20.7 100.5,20.7 100.7,20.4 C100.8,20.3 100.8,20 100.9,19.7 L101.4,17.5 L98.2,15.6 L96.9,16.7 C96.4,17.1 96.3,17.3 96.2,17.4 C96,17.7 96.1,18.1 96.8,18.6 L96.3,19.5 L93.1,17.6 L93.4,16.7 L93.4,16.7 Z M98.8,14.8 L101.4,16.3 L102.4,11.7 L98.8,14.8 L98.8,14.8 Z" id="Shape"></path>
                <path d="M102.8,22.3 C103.5,22.8 104,22.8 104.6,22.2 L109.3,16.8 C109.9,16.1 109.8,15.6 109.2,15 L109.9,14.2 L113.3,17.2 L112.6,18 C111.9,17.5 111.4,17.5 110.8,18.1 L109.2,19.9 L112.4,22.7 L114,20.9 C114.6,20.2 114.5,19.7 113.9,19.1 L114.6,18.3 L118,21.3 L117.3,22.1 C116.6,21.6 116.1,21.6 115.5,22.2 L110.8,27.6 C110.2,28.3 110.3,28.8 110.9,29.4 L110.2,30.2 L106.8,27.2 L107.5,26.4 C108.2,26.9 108.7,26.9 109.3,26.3 L111.7,23.6 L108.5,20.8 L106.1,23.5 C105.5,24.2 105.6,24.7 106.2,25.3 L105.5,26.1 L102.1,23.1 L102.8,22.3 L102.8,22.3 Z" id="Shape"></path>
            </g>
            <path d="M142.2,55.1 C139.4,50.9 136,47.1 132.1,43.9 C129,41.4 125.6,39.3 122,37.6 L122,37.6 C118.8,36.1 115.4,35 111.9,34.2 L111.9,34.2 C108.6,33.5 105.2,33.1 101.8,33.1 C98.4,33.1 95,33.5 91.7,34.2 C88.2,34.9 84.8,36.1 81.6,37.6 C78,39.3 74.6,41.4 71.5,43.9 C67.6,47.1 64.2,50.8 61.4,55.1 C56.2,63 53.5,72.1 53.5,81.5 C53.5,90.9 56.2,100.1 61.4,107.9 L61.4,107.9 C64.2,112.1 67.6,115.9 71.5,119.1 C74.6,121.6 78,123.7 81.6,125.4 C84.8,126.9 88.2,128 91.7,128.8 C95,129.5 98.4,129.9 101.8,129.9 C105.2,129.9 108.6,129.5 111.9,128.8 L111.8,128.3 L111.9,128.8 C115.4,128.1 118.8,126.9 122,125.4 L122,125.4 C125.6,123.7 129,121.6 132.1,119.1 C136,115.9 139.4,112.2 142.2,107.9 C147.4,100 150.1,90.9 150.1,81.5 C150.1,72.1 147.3,62.9 142.2,55.1 L142.2,55.1 Z M142.3,57.1 C146.8,64.5 149.1,72.9 149.1,81.5 C149.1,90.2 146.8,98.6 142.3,105.9 L142.3,57.1 L142.3,57.1 Z M72.3,44.5 C75.1,42.3 78.1,40.4 81.3,38.8 L81.3,124 C78.1,122.5 75.1,120.6 72.3,118.3 L72.3,44.5 L72.3,44.5 Z M82.3,38.4 C85.2,37.1 88.2,36.1 91.3,35.4 L91.3,127.6 C88.2,126.9 85.2,125.9 82.3,124.6 L82.3,38.4 L82.3,38.4 Z M92.3,35.2 C95.3,34.6 98.3,34.3 101.3,34.2 L101.3,128.8 C98.3,128.8 95.3,128.4 92.3,127.8 L92.3,35.2 L92.3,35.2 Z M102.3,34.2 C105.3,34.2 108.3,34.6 111.3,35.2 L111.3,127.9 C108.3,128.5 105.3,128.8 102.3,128.9 L102.3,34.2 L102.3,34.2 Z M112.3,35.4 C115.4,36.1 118.4,37.1 121.3,38.4 L121.3,124.6 C118.4,125.9 115.4,126.9 112.3,127.6 L112.3,35.4 L112.3,35.4 Z M122.3,38.9 C125.5,40.4 128.5,42.3 131.3,44.5 L131.3,118.4 C128.5,120.6 125.5,122.5 122.3,124.1 L122.3,38.9 L122.3,38.9 Z M61.3,57.1 L61.3,106 C56.8,98.6 54.5,90.2 54.5,81.6 C54.5,72.8 56.8,64.4 61.3,57.1 L61.3,57.1 Z M62.3,107.5 L62.3,55.5 C64.8,51.7 67.8,48.3 71.3,45.4 L71.3,117.7 C67.8,114.7 64.8,111.3 62.3,107.5 L62.3,107.5 Z M132.3,117.6 L132.3,45.3 C135.8,48.2 138.8,51.6 141.3,55.4 L141.3,107.4 C138.8,111.3 135.7,114.7 132.3,117.6 L132.3,117.6 Z" id="Shape" fill="#314354" sketch:type="MSShapeGroup"></path>
            <path d="M190.5,78 C190.5,77.1 190.4,75.8 190.5,74.2 L191.1,51.9 C193.4,50.6 194.5,48.7 194.4,46.4 C194.3,45 193.7,43.7 192.6,42.8 C191.8,42.1 190.5,41.3 188.4,41.5 C187.8,41.5 187.1,41.6 186.3,41.7 C185.3,41.8 184.2,42 182.7,42.1 C179.7,42.3 178.5,42.3 177.7,42.3 L176.6,42.3 C174.9,42.4 173.4,43.3 172.5,44.7 C172.4,44.5 172.2,44.4 172,44.3 C171.2,43.6 169.9,42.8 167.8,43 C167,43.1 166.2,43.2 165.4,43.3 C164.7,43.4 164,43.5 163.3,43.5 C160.9,43.7 159.4,43.7 158.3,43.7 C157.6,43.7 157,43.7 156.6,43.8 C154.3,44 152.9,44.9 152.1,46.1 C151.2,45.7 150.2,45.6 149.1,45.7 C148.3,45.8 147.7,46.1 147.2,46.4 L147,46.4 C145.4,46 142.9,45.4 140,45.8 C132.3,46.9 127.6,53.3 128.7,61.2 C129.2,65.2 131.3,69.2 134.5,71.9 C141,77.6 144.2,80.4 144.3,81.6 C144.4,82.1 144.3,82.3 144.3,82.3 C144.3,82.4 143.9,82.6 143.2,82.7 C141.5,82.9 140.1,81.3 138.4,78.7 C137.5,77.3 135.9,74.9 132.8,75.3 C130.2,75.7 127.7,77.9 128.2,81.8 C128.2,82 128.3,82.2 128.3,82.4 L124,76.1 C128.6,71.5 128.5,66.2 127.9,63.2 L127.9,63 C127.6,61.4 126.7,56.6 122.2,53.6 C118.7,51.3 114.2,50.8 108.6,52 C107.7,52.2 106.8,52.5 106,52.7 C105.3,52.9 104.6,53.1 103.9,53.3 C102.7,53.6 101.5,53.8 100.2,54 C98.9,54.2 97.5,54.5 96.1,54.8 C90,56.1 90.8,61 90.9,61.5 C91.2,62.8 92.2,65.6 96.4,65.8 C96.6,66.6 96.7,67.5 96.8,68.5 L98.6,88.9 L82.4,62.2 L82.3,62 C80.1,58.3 77.1,58.8 75.9,59.2 C73.7,59.9 72.5,61.6 72.1,64.5 L72.1,64.7 L72.1,64.8 L66.5,98.6 L57.4,76.6 C56.8,75.2 56.7,74.5 56.7,74.1 C56.8,74 56.9,73.9 57,73.9 C60.5,71.3 60.3,68.5 59.5,66.6 C58.9,65.2 57.9,64.2 56.5,63.6 C54.4,62.8 52.5,63.6 51.7,64 C51,64.3 50.3,64.7 49.8,65 C49.4,65.2 49,65.5 48.7,65.6 C48.2,65.8 47.7,66 47.1,66.2 C46.4,66.5 45.6,66.8 44.8,67.1 C42.6,68.1 41.5,70 41.5,72.7 L41.5,73.1 L40.7,95.4 L26.8,80.8 C26.7,80.7 26.6,80.6 26.5,80.5 C23.2,77.6 15.7,74 8.3,78 C1.4,81.8 0.5,89.2 1.1,93 C1.9,99.6 5.9,102.8 8.2,104.1 C10.5,105.4 13.9,106.3 16.5,105.1 C17.8,104.5 18.8,103.6 19.3,102.4 L22.8,116 C23.8,119.9 23.2,120.5 22.9,120.7 C21,122.8 20.5,125 21.5,127.4 C22.1,128.8 23.2,129.9 24.6,130.5 C25.2,130.7 25.9,130.9 26.5,130.9 C27.3,130.9 28.1,130.7 28.8,130.4 C29.3,130.2 29.8,129.9 30.5,129.5 C31.4,129 32.5,128.4 33.8,127.8 C34.5,127.5 35.7,127 36.8,126.6 C37.9,126.2 38.8,125.8 39.4,125.6 C41.6,124.6 42.8,122.5 42.5,120.3 C43.9,121.5 46.1,122.6 48.6,121.4 C50.6,120.5 51.7,118.5 51.7,115.6 L51.7,114.5 C52.3,115.5 53.2,116.3 54.3,116.7 C55.8,117.3 57.7,117.2 59.3,116.5 C59.7,116.3 60.3,116 61,115.6 C62,115.1 63.2,114.4 64.8,113.7 C65.8,113.3 66.8,112.8 67.9,112.4 C68.6,112.1 69.4,111.8 70.2,111.5 C70.5,111.5 70.7,111.4 71,111.3 C71.8,111.1 72.4,110.8 73.1,110.5 C73.8,110.2 74.6,109.9 75.6,109.6 C76.7,109.3 77.4,109.1 78.1,109 C78.6,108.9 79.2,108.8 79.8,108.6 C83.6,107.4 84.6,104.2 83.9,101.8 C83.4,100 82,97.9 78.1,97.7 C78.1,96.7 78.3,95.6 78.4,94.7 C79.1,94.5 80.1,94.2 81,93.9 C82.2,93.5 83.1,93.3 83.7,93.1 C84.2,94 84.9,95.1 85.3,96 C83.2,98 83.4,100.3 83.8,101.6 C84.2,102.9 85.1,104 86.3,104.7 C87.7,105.5 89.4,105.6 91.1,105.1 C91.9,104.8 92.8,104.5 93.7,104.2 C95,103.7 96.5,103.2 98.8,102.5 C99.4,102.3 100,102.2 100.5,102.1 C101,102 101.6,101.9 102.1,101.7 C102.2,101.7 102.4,101.6 102.5,101.6 C103.6,101.4 104.6,101.1 105.6,100.8 C106.5,100.5 107.4,100.3 108.3,100.1 C109.2,99.9 110.2,99.7 111.2,99.6 C112.3,99.4 113.4,99.2 114.5,99 C117.4,98.4 118.9,96.5 119.3,94.5 C119.3,94.5 119.4,94.5 119.4,94.6 C122.4,96.6 124.3,97.3 128.2,96.5 C130.9,95.9 132.7,94.8 134,93.5 C135.3,94 137.1,94.4 139.6,94.4 C140.9,94.4 142.5,94.3 144.2,94 C147.8,93.5 150.9,92.2 153.2,90.3 C154.5,91.3 156,91.4 156.9,91.4 L157.7,91.4 C158.6,91.3 159.4,91.2 160.2,91.1 C161.1,91 162,90.9 163,90.8 C164.2,90.7 165.3,90.7 166.2,90.7 C167,90.7 167.7,90.7 168.5,90.6 C169.3,90.6 171.6,90.5 173.2,88.7 C173.3,88.5 173.5,88.4 173.6,88.2 C173.7,88.3 173.8,88.4 173.9,88.5 C174.7,89.2 176.2,90.1 178.5,89.9 C179.4,89.8 180.2,89.7 181.1,89.6 C182,89.5 182.8,89.4 183.8,89.3 C185,89 186,89 187,89 C187.8,89 188.5,89 189.2,88.9 L189.4,88.9 C190.4,88.9 192.6,88.8 194.2,87 C195.1,86 195.6,84.6 195.5,83.2 C195.4,81.4 194.4,79 190.5,78 L190.5,78 Z M170.6,53.2 C171.7,52.6 172.5,51.9 173,51.1 C173.6,51.9 174.6,52.5 176,53 C176.1,54 176.1,54.6 176.1,55.2 L176,59.5 L170.3,59.9 L170.6,53.2 L170.6,53.2 Z M144.8,57.8 C145.3,58.4 145.6,59.1 146,59.8 C146.1,60 146.3,60.4 146.5,60.8 C144.5,59.1 142.8,57.6 142.5,57 L142.5,56.8 L142.5,56.4 C142.9,56.4 143.6,56.3 144.8,57.8 L144.8,57.8 Z M153.6,67.2 C152.2,66 151,64.9 149.9,63.9 C150.5,64.1 151.3,64.1 152.1,64 C153.4,63.8 154.5,63.2 155.3,62.2 L155,68.7 C154.6,68.2 154.1,67.7 153.6,67.2 L153.6,67.2 Z M111.1,63 L111.1,63 C112.3,63.8 113.2,65.2 113.5,66.6 C113.9,68.8 113.8,69.2 111.7,69.7 L111.1,63.1 C111.1,63.1 111.1,63.1 111.1,63 L111.1,63 Z M113.4,87.1 C113.5,87.2 113.6,87.4 113.7,87.5 L113.5,87.5 C113.5,87.4 113.5,87.2 113.4,87.1 L113.4,87.1 Z M35.3,115.4 L35,115.4 C34.9,115.3 34.8,115.1 34.7,114.8 C34.2,113.6 33.7,112.1 33.2,110.4 L37.8,115.5 C37.3,115.4 36.8,115.4 36.3,115.4 C36,115.3 35.6,115.4 35.3,115.4 L35.3,115.4 Z M14.5,94.1 C14.4,93.8 14.3,93.2 14.4,93 C14.4,93 14.4,93 14.6,92.9 C16,92.5 16.8,93.8 17.1,94.6 L17.1,94.7 C17.1,94.8 17.2,94.9 17.2,95 C16.5,94.5 15.5,94.1 14.5,94.1 L14.5,94.1 Z M52.9,107.1 C52.5,107.5 52.1,108 51.8,108.4 L51.9,104 L52.5,105.5 C52.8,106.3 52.9,106.8 53,107 C53,107 52.9,107 52.9,107.1 L52.9,107.1 Z M175.5,79.1 C174.4,79.7 173.6,80.4 173,81.2 C172.3,80.5 171.2,79.8 169.6,79.4 C169.6,78.9 169.6,78.3 169.7,77.8 C169.7,77.1 169.8,76.4 169.8,75.5 L169.9,71.7 L175.7,71.3 L175.5,79.1 L175.5,79.1 Z" id="Shape" fill="#FF8908" sketch:type="MSShapeGroup"></path>
            <g id="Group" transform="translate(4.000000, 44.000000)" fill="#FFFFFF" sketch:type="MSShapeGroup">
                <path d="M125.8,42.8 C124.8,42.9 123.7,43.1 122.2,40.9 L115.4,31 C120.8,27.3 121.2,22.7 120.6,19.4 L120.6,19.2 C120.3,17.8 119.7,14.3 116.4,12.1 C113.8,10.4 110.1,10 105.5,11 C104.7,11.2 103.9,11.4 103.1,11.6 C102.3,11.8 101.6,12 100.8,12.2 C99.5,12.5 98.2,12.7 96.9,12.9 C95.6,13.1 94.3,13.4 92.9,13.7 C91,14.1 90.2,15 90.4,16.3 C90.7,17.8 92.2,17.8 93,17.8 C94.3,17.8 95.3,17.8 95.8,20.3 C96,21.3 96.2,22.4 96.3,23.6 L98.3,46.4 C98.5,48.8 97.9,49.4 97.1,49.8 C96.9,49.8 96.7,49.8 96.6,49.9 C95.5,50.1 94.2,50.2 92.5,47.4 L75.5,20.1 C75.4,20 75.4,19.9 75.3,19.8 C75,19.2 74.3,18.1 73,18.5 C71.9,18.8 71.7,20.1 71.6,20.8 C71.6,20.9 71.6,21.1 71.5,21.2 L71.5,21.2 L65.5,57.8 C65.4,58.6 65,59.2 64.6,59.7 C64.5,59.7 64.3,59.7 64.2,59.8 C62.6,60 61.1,60.3 59.8,57 L50.1,33.7 C48.1,28.9 49.6,27.8 50.8,26.9 C51.6,26.3 52.8,25.4 52.1,23.7 C51.8,23.1 51.4,22.8 51.1,22.7 C50.3,22.4 49.6,22.8 49.1,23 C48.5,23.3 48,23.6 47.5,23.9 C47,24.2 46.5,24.5 46,24.7 C45.4,25 44.8,25.2 44.1,25.4 C43.4,25.6 42.7,25.9 42,26.2 C40.7,26.8 40.7,27.9 40.7,28.7 L40.7,29.2 L39.7,60 L20.3,39.2 C20.3,39.2 20.3,39.1 20.2,39.1 C19.9,38.9 13.2,33.2 6,37.1 C-0.6,40.7 0.6,48.5 0.6,48.6 C1.2,53.7 4.2,56.1 6,57.1 C7.9,58.1 10,58.5 11.2,58 C12.1,57.6 12.4,56.9 12.5,56.5 C12.7,55.3 11.5,54.2 11.3,54 C11.1,53.8 10.8,53.7 10.5,53.8 C8.6,54 7.4,52.3 7.1,50.6 C6.8,48.9 7.2,46.5 9.7,45.8 C14.4,44.4 16.4,49.4 16.5,49.6 C17,50.8 17.5,52.6 17.8,53.6 L22.3,71.4 C23.8,77.1 22.5,78.5 21.6,79.4 C21,80 20.2,80.9 20.8,82.3 C21.1,83 21.6,83.3 21.9,83.5 C22.1,83.6 22.3,83.6 22.6,83.6 C22.9,83.6 23.2,83.5 23.4,83.4 C23.8,83.2 24.3,82.9 24.9,82.6 C25.8,82.1 27,81.5 28.4,80.8 C29.2,80.4 30.5,79.9 31.6,79.5 C32.6,79.1 33.5,78.7 34,78.5 C35.4,77.9 35.1,76.7 34.9,76.3 C34.2,74.7 32.7,74.8 31.7,74.9 C30.2,75 28.8,75.2 27.5,72.2 C26.7,70.2 25.9,67.6 25.1,64.5 L22.7,54 L39.3,72.2 C39.4,72.3 39.5,72.4 39.6,72.5 C40.5,73.5 41.8,74.9 43.2,74.2 C44.1,73.8 44.3,72.6 44.3,71.5 L44.9,43.2 L51.9,60 C53.4,63.6 52.4,64.6 51.5,65.5 C50.9,66.1 50.1,67 50.6,68.3 C50.8,68.8 51.2,69.2 51.7,69.4 C52.5,69.7 53.4,69.5 53.9,69.3 C54.3,69.1 54.8,68.8 55.4,68.5 C56.4,68 57.7,67.3 59.4,66.5 C60.4,66 61.6,65.6 62.6,65.1 C63.5,64.8 64.3,64.4 65.2,64 C65.4,64 65.7,63.9 65.9,63.9 C66.5,63.7 67.1,63.5 67.7,63.2 C68.4,62.9 69.3,62.6 70.4,62.2 C71.6,61.8 72.4,61.6 73.1,61.5 C73.6,61.4 74.1,61.3 74.5,61.1 C76.2,60.6 76.6,59.4 76.3,58.5 C75.8,56.9 74.2,56.9 73.1,57 C71.5,57 70.8,56.9 70.5,55.8 C70,54.1 70.7,48.4 71.5,47.8 C72,47.5 73.5,47.1 75.8,46.4 C78.8,45.5 79.9,45.2 80.9,45.1 C82,45.7 84.6,50.7 84.9,51.7 C85.3,53.1 84.9,53.4 84.2,53.9 C83.6,54.3 82.6,55 83,56.5 C83.1,56.9 83.4,57.3 83.8,57.5 C84.4,57.8 85.1,57.8 85.9,57.6 C86.7,57.4 87.5,57.1 88.4,56.7 C89.7,56.2 91.3,55.7 93.7,54.9 C94.5,54.7 95.1,54.5 95.7,54.4 C96.2,54.3 96.7,54.2 97.3,54 L97.3,54 C97.4,54 97.6,54 97.7,53.9 C98.7,53.7 99.7,53.4 100.7,53.1 C101.6,52.8 102.6,52.6 103.5,52.4 C104.5,52.2 105.6,52 106.6,51.8 C107.6,51.6 108.7,51.5 109.7,51.2 C112,50.7 111.9,49.1 111.8,48.5 C111.5,46.8 109.9,46.8 108.9,46.8 C107.5,46.8 106.4,46.8 105.8,44.1 C105.6,42.9 104.6,34.8 104.8,33.9 L104.8,33.8 C104.8,33.8 104.9,33.7 105.2,33.7 C107.1,33.3 107.4,33.5 107.9,34.4 C113.4,43.3 115.4,46.1 117.2,47.3 C119.5,48.8 120.5,49.3 123.3,48.7 C124.8,48.4 128.6,46.9 128.1,44.2 C128,42.5 126.5,42.7 125.8,42.8 L125.8,42.8 Z M108.1,29.3 C107,29.6 105.2,29.9 104.7,29.6 C104.7,29.6 104.6,29.5 104.6,29.4 C104.5,29 104.5,28.8 104.5,28.2 L104.5,27.8 L104.5,27.8 L103.8,19.5 C103.6,16.7 103.6,15.7 105.3,15.3 C105.6,15.2 106,15.2 106.3,15.2 C107.5,15.2 108.6,15.7 109.3,16.2 C111.2,17.4 112.7,19.7 113.1,22 C113.8,26.2 112.4,28.3 108.1,29.3 L108.1,29.3 Z M78.8,40.6 C78.3,41 76.4,41.6 74.8,42.1 L74.6,42.1 C73.4,42.5 72.6,42.7 72.2,42.7 C72.2,42.4 72.3,41.9 72.4,41.6 C72.5,41.3 72.5,40.9 72.6,40.6 L73.8,32.6 L77.3,38 L77.4,38.1 C78,39.1 78.6,40 78.8,40.6 L78.8,40.6 Z" id="Shape"></path>
                <path d="M150.9,33.4 C150.5,30.1 149.3,27.6 147.3,25.7 C144.4,23 142.1,21 140.4,19.5 C135.7,15.4 135.2,14.9 135,13.2 C134.6,10 135.8,9.2 137.9,8.9 C140.1,8.6 141.8,9.3 143.5,11.4 C144.3,12.4 144.8,13.4 145.2,14.2 C145.7,15.3 146.3,16.6 147.7,16.4 C148.5,16.3 149.3,15.6 149.1,14.3 C149,13.4 148.9,13 148.8,12.7 C148.7,12.3 148.6,12 148.5,11.2 L147.9,6.9 C147.8,6.2 147.6,5.6 147.1,5.1 C146.8,4.9 146.4,4.7 145.7,4.8 C145.3,4.9 144.9,5.1 144.5,5.4 C144.4,5.5 144.2,5.6 144.1,5.7 C143.7,5.7 143,5.5 142.3,5.4 C140.8,5 138.8,4.5 136.7,4.9 C130.9,5.8 127.5,10.4 128.3,16.3 C128.7,19.5 130.4,22.6 132.9,24.9 C141.7,32.6 143.6,34.3 143.9,36.7 C144.4,40.5 141.6,41.5 139.8,41.7 C135.6,42.3 133.1,38.5 131.5,36.1 C130.7,34.8 130.2,34.2 129.4,34.3 C128.7,34.4 127.5,34.9 127.8,36.9 C128,38.3 128.7,40.8 129.9,44.7 C130.1,45.4 130.8,46.2 134.2,46.4 C134.8,46.4 135.4,46.5 136.1,46.5 C137.4,46.5 138.7,46.4 139.8,46.3 C145.9,45.4 152,41.5 150.9,33.4 L150.9,33.4 Z" id="Shape"></path>
                <path d="M185.4,37.3 C184.1,37 183.2,36.8 183,34.9 C183,34.1 182.8,32.3 182.9,30 L183.5,7.2 C183.6,5.6 184.3,5.2 185.1,4.8 C185.8,4.4 186.8,3.9 186.8,2.5 C186.8,1.9 186.5,1.5 186.2,1.3 C185.8,0.9 185.2,0.8 184.5,0.8 C183.9,0.8 183.3,0.9 182.6,1 C181.6,1.1 180.4,1.3 178.8,1.4 C175.7,1.6 174.4,1.6 173.6,1.6 L172.8,1.6 C171.8,1.7 171,2.5 171.1,3.6 C171.2,5.3 172.6,5.6 173.5,5.7 C174.6,5.9 175.2,6.1 175.3,7.8 C175.4,9.5 175.5,10.4 175.4,11.2 L175.2,18.6 C174.9,18.7 174.5,18.7 174.1,18.7 L162.5,19.5 L162.5,18.4 L163,8.6 C163.1,7 163.8,6.6 164.6,6.2 C165.3,5.8 166.3,5.3 166.3,3.9 C166.3,3.3 166,2.9 165.7,2.7 C165.3,2.3 164.7,2.2 164,2.2 C163.3,2.2 162.6,2.3 161.9,2.5 C161.1,2.6 160.3,2.7 159.6,2.8 C157.1,3 155.5,3 154.4,3 L152.9,3 C151.4,3.1 150.7,3.7 150.7,4.9 C150.8,6.6 152.2,7 153,7.2 C154.1,7.5 154.9,7.7 155.1,10.1 L155.1,12.1 L155.1,12.8 L154.1,37.3 C154.1,38.8 153.3,39.3 152.4,39.8 C151.7,40.2 150.7,40.8 150.7,42 C150.7,42.5 150.9,42.9 151.3,43.3 C151.8,43.7 152.5,43.8 153.1,43.8 L153.6,43.8 C154.3,43.7 155.1,43.6 155.9,43.5 C156.8,43.4 157.8,43.3 158.9,43.2 C160.2,43.1 161.4,43.1 162.3,43.1 L164.3,43.1 L164.5,43.1 C165.1,43.1 166.1,43 166.7,42.4 C167,42.1 167.1,41.6 167.1,41.2 C167,39.6 165.5,39.3 164.5,39 C163.2,38.7 162.2,38.5 162.1,36.6 C162.1,36.1 162.1,35.1 162.2,33.8 C162.2,33.1 162.3,32.4 162.3,31.6 L162.4,26.9 C162.4,25.8 162.4,24.8 162.5,24.6 C162.6,24.6 162.8,24.5 163.3,24.5 L175,23.7 L175.3,23.7 L175.3,23.8 L175.3,26.4 L175.3,26.4 L175.1,35.7 C175.1,37.2 174.3,37.7 173.4,38.2 C172.7,38.6 171.7,39.2 171.7,40.4 C171.7,40.9 171.9,41.4 172.3,41.7 C172.8,42.1 173.4,42.3 174.3,42.2 C175.1,42.1 175.8,42 176.6,41.9 C177.5,41.8 178.4,41.7 179.5,41.6 C180.8,41.5 181.9,41.5 182.9,41.5 C183.7,41.5 184.3,41.5 184.9,41.4 L185.2,41.4 C185.9,41.4 187,41.3 187.6,40.6 C187.9,40.3 188,39.9 188,39.4 C187.9,37.9 186.4,37.5 185.4,37.3 L185.4,37.3 Z" id="Shape"></path>
            </g>
            <g id="Group" transform="translate(2.000000, 43.000000)" fill="#314354" sketch:type="MSShapeGroup">
                <path d="M126.1,42.3 C125.1,42.5 124,42.6 122.5,40.5 L115.7,30.6 C121.1,26.9 121.5,22.3 120.9,19 L120.9,18.8 C120.6,17.4 120,13.9 116.7,11.7 C114.1,10 110.4,9.6 105.8,10.6 C105,10.8 104.2,11 103.4,11.2 C102.6,11.4 101.9,11.7 101.1,11.8 C99.8,12.1 98.6,12.3 97.3,12.5 C96,12.7 94.7,13 93.3,13.3 C91.4,13.7 90.5,14.6 90.8,15.9 C91.1,17.4 92.6,17.4 93.4,17.4 C94.7,17.4 95.7,17.4 96.2,19.9 C96.4,20.9 96.6,22 96.7,23.3 L98.7,46.1 C98.9,48.5 98.3,49.1 97.5,49.5 C97.3,49.5 97.1,49.5 97,49.6 C95.9,49.8 94.6,49.9 92.9,47.1 L75.8,19.6 C75.7,19.5 75.7,19.4 75.6,19.3 C75.3,18.7 74.6,17.6 73.3,18 C72.2,18.3 72,19.6 71.9,20.3 C71.9,20.4 71.9,20.6 71.8,20.7 L65.8,57.3 C65.7,58.1 65.3,58.7 64.9,59.2 C64.8,59.2 64.6,59.2 64.5,59.3 C62.9,59.5 61.4,59.8 60.1,56.5 L50.4,33.2 C48.4,28.4 49.9,27.3 51.1,26.4 C51.9,25.8 53.1,24.9 52.4,23.2 C52.1,22.6 51.7,22.3 51.4,22.2 C50.6,21.9 49.9,22.3 49.4,22.5 C48.8,22.8 48.3,23.1 47.8,23.4 C47.3,23.7 46.8,24 46.4,24.2 C45.8,24.5 45.1,24.7 44.5,25 C43.8,25.2 43.1,25.5 42.4,25.8 C41.1,26.4 41.1,27.5 41.1,28.3 L41.1,28.8 L40.1,59.6 L20.6,38.7 L20.5,38.6 C20.2,38.4 13.5,32.7 6.3,36.6 L6.3,36.6 C-0.3,40.3 0.9,48 0.9,48.1 C1.5,53.2 4.5,55.6 6.3,56.6 C8.2,57.6 10.3,58 11.5,57.5 C12.4,57.1 12.7,56.4 12.8,56 C13,54.8 11.8,53.7 11.6,53.5 L11.3,53.2 L10.9,53.2 C9,53.4 7.8,51.7 7.5,50 C7,48.2 7.5,45.9 10,45.1 C14.7,43.7 16.7,48.7 16.8,48.9 C17.3,50.1 17.8,51.9 18.1,52.9 L22.6,70.7 C24.1,76.4 22.8,77.8 21.9,78.7 C21.3,79.3 20.5,80.2 21.1,81.6 C21.4,82.3 21.9,82.6 22.2,82.8 C22.4,82.9 22.6,82.9 22.9,82.9 C23.2,82.9 23.5,82.8 23.7,82.7 C24.1,82.5 24.6,82.2 25.2,81.9 C26.1,81.4 27.2,80.8 28.7,80.1 C29.5,79.7 30.8,79.2 31.9,78.8 C32.9,78.4 33.8,78.1 34.3,77.8 C35.6,77.2 35.4,76.1 35.2,75.6 C34.5,74 33,74.1 32,74.2 C30.5,74.3 29.1,74.5 27.8,71.5 C27,69.5 26.2,66.9 25.4,63.7 L23,53.5 L39.6,71.7 C39.7,71.8 39.8,71.9 39.9,72 C40.8,73 42.1,74.4 43.5,73.7 C44.4,73.3 44.6,72.1 44.6,71 L45.2,42.7 L52.2,59.5 C53.7,63.1 52.7,64.1 51.8,65 C51.2,65.6 50.4,66.5 50.9,67.8 C51.1,68.3 51.5,68.7 52,68.9 C52.8,69.2 53.7,69 54.2,68.8 C54.6,68.6 55.1,68.4 55.7,68 C56.7,67.5 58,66.8 59.7,66 C60.7,65.5 61.9,65.1 62.9,64.6 C63.8,64.3 64.6,63.9 65.5,63.5 C65.7,63.5 66,63.4 66.2,63.4 C66.9,63.2 67.4,63 68.1,62.7 C68.8,62.4 69.7,62.1 70.8,61.7 C72,61.3 72.8,61.1 73.5,61 C74,60.9 74.5,60.8 75,60.6 C76.7,60.1 77.1,58.9 76.8,58 C76.3,56.4 74.7,56.4 73.6,56.5 C72,56.5 71.3,56.4 71,55.3 C70.5,53.6 71.2,47.9 72,47.3 C72.5,47 74,46.6 76.3,45.9 C79.3,45 80.4,44.7 81.4,44.6 C82.5,45.2 85.1,50.2 85.4,51.2 C85.8,52.6 85.4,52.9 84.7,53.4 C84.1,53.8 83.1,54.5 83.5,56 C83.6,56.4 83.9,56.8 84.3,57 C84.9,57.3 85.6,57.3 86.4,57.1 C87.2,56.9 88,56.6 88.9,56.2 C90.2,55.7 91.8,55.2 94.2,54.4 C95,54.2 95.6,54 96.2,53.9 C96.7,53.8 97.2,53.7 97.8,53.5 L97.8,53.5 C97.9,53.5 98.1,53.5 98.2,53.4 C99.2,53.2 100.2,52.9 101.2,52.6 C102.1,52.3 103.1,52.1 104,51.9 C105,51.7 106.1,51.5 107.1,51.3 C108.1,51.1 109.2,51 110.2,50.7 C112.5,50.2 112.4,48.6 112.3,48 C112,46.3 110.4,46.3 109.4,46.3 C108,46.3 106.9,46.3 106.3,43.6 C106.1,42.6 105.1,34.3 105.3,33.4 L105.3,33.3 C105.3,33.3 105.4,33.2 105.7,33.2 C107.6,32.8 107.9,33 108.4,33.9 C114,43 116,45.7 117.8,47 C120.1,48.5 121.1,49 123.9,48.4 C125.4,48.1 129.2,46.6 128.7,43.9 C128.3,42 126.8,42.2 126.1,42.3 L126.1,42.3 Z M108.4,28.8 C107.3,29.1 105.5,29.4 105,29.1 C105,29.1 104.9,29 104.9,28.9 C104.8,28.5 104.8,28.3 104.8,27.7 L104,19 C103.8,16.2 103.8,15.2 105.5,14.8 C105.8,14.7 106.2,14.7 106.5,14.7 C107.7,14.7 108.8,15.2 109.5,15.7 C111.4,16.9 112.9,19.2 113.3,21.5 C114.1,25.7 112.7,27.8 108.4,28.8 L108.4,28.8 Z M79.2,40.1 C78.7,40.5 76.8,41.1 75.2,41.6 L75,41.7 C73.8,42.1 73,42.3 72.6,42.3 C72.6,42 72.7,41.5 72.8,41.2 C72.9,40.9 72.9,40.5 73,40.2 L74.2,32.2 L77.7,37.6 C78.3,38.6 78.9,39.5 79.2,40.1 L79.2,40.1 Z" id="Shape"></path>
                <path d="M151.2,32.9 C150.8,29.6 149.6,27.1 147.6,25.2 C144.7,22.5 142.4,20.5 140.7,19 C136,14.9 135.5,14.4 135.3,12.7 C134.9,9.5 136.1,8.7 138.2,8.4 C140.4,8.1 142.1,8.8 143.8,10.9 C144.6,11.9 145.1,12.9 145.5,13.7 C146,14.8 146.6,16.1 148,15.9 C148.8,15.8 149.6,15.1 149.4,13.8 C149.3,12.9 149.2,12.6 149.1,12.2 C149,11.8 148.9,11.5 148.8,10.6 L148.2,6.3 C148.1,5.6 148,5 147.4,4.5 C147.1,4.3 146.7,4.1 146,4.2 C145.6,4.3 145.2,4.5 144.8,4.8 C144.7,4.9 144.5,5 144.4,5.1 C144,5.1 143.3,4.9 142.6,4.8 C141.1,4.4 139.2,3.9 137,4.3 C131.2,5.2 127.8,9.8 128.6,15.7 C129,18.9 130.7,22 133.2,24.3 C142,32 143.9,33.7 144.2,36.1 C144.7,39.9 141.9,40.9 140.1,41.1 C135.9,41.7 133.4,37.9 131.8,35.5 C131,34.3 130.5,33.6 129.7,33.7 C128.8,33.8 127.8,34.4 128.1,36.3 C128.3,37.7 129,40.2 130.2,44.1 C130.4,44.8 131.1,45.6 134.5,45.8 C135.1,45.8 135.7,45.9 136.4,45.9 C137.7,45.9 139,45.8 140.1,45.7 C146.2,44.9 152.3,41 151.2,32.9 L151.2,32.9 Z" id="Shape"></path>
                <path d="M185.7,36.8 C184.4,36.5 183.4,36.3 183.3,34.4 C183.3,33.6 183.1,31.8 183.2,29.5 L183.8,6.7 C183.9,5.1 184.6,4.7 185.4,4.3 C186.1,3.9 187.1,3.4 187.1,2 C187.1,1.4 186.8,1 186.5,0.8 C186.1,0.4 185.5,0.3 184.8,0.3 C184.2,0.3 183.6,0.4 182.9,0.5 C181.9,0.6 180.7,0.8 179.1,0.9 C176,1.1 174.7,1.1 173.9,1.1 L173.1,1.1 C172.1,1.2 171.3,2 171.4,3.1 C171.5,4.8 172.9,5.1 173.8,5.2 C174.9,5.4 175.5,5.6 175.6,7.2 C175.7,9 175.8,9.8 175.7,10.7 L175.5,18.1 C175.2,18.2 174.8,18.2 174.4,18.2 L173.9,18.2 L162.8,19 L162.8,17.9 L163.3,8.1 C163.4,6.5 164.1,6.1 164.9,5.7 C165.6,5.3 166.6,4.8 166.6,3.4 C166.6,2.8 166.3,2.4 166,2.2 C165.6,1.8 165,1.7 164.3,1.7 C163.6,1.7 162.9,1.8 162.2,2 C161.4,2.1 160.6,2.2 159.8,2.3 C157.3,2.5 155.7,2.5 154.6,2.5 L153.1,2.5 C152.5,2.5 150.8,2.7 150.9,4.4 C151,6.1 152.4,6.5 153.2,6.7 C154.3,7 155.1,7.2 155.3,9.5 L155.3,11.5 L154.2,36.7 C154.2,38.2 153.4,38.7 152.5,39.2 C151.8,39.6 150.8,40.2 150.8,41.4 C150.8,41.9 151,42.4 151.4,42.7 C151.9,43.1 152.6,43.2 153.2,43.2 L153.7,43.2 C154.5,43.1 155.2,43 156,42.9 C156.9,42.8 157.9,42.7 159,42.6 C160.3,42.5 161.4,42.5 162.4,42.5 C163.2,42.5 163.8,42.5 164.4,42.4 L164.6,42.4 C165.2,42.4 166.2,42.3 166.8,41.7 C167.1,41.4 167.2,40.9 167.2,40.5 C167.1,38.9 165.6,38.6 164.6,38.3 C163.3,38 162.3,37.8 162.2,35.9 C162.2,35.4 162.2,34.4 162.3,33.1 C162.3,32.5 162.4,31.7 162.4,30.9 L162.5,26.2 C162.5,25.2 162.5,24.2 162.6,23.9 C162.7,23.9 163,23.8 163.3,23.8 L175,23 L175.3,23 L175.3,23.1 L175.3,25.7 L175.1,35.1 C175.1,36.6 174.3,37.1 173.4,37.6 C172.7,38 171.7,38.6 171.7,39.8 C171.7,40.3 171.9,40.8 172.3,41.1 C172.8,41.5 173.5,41.7 174.3,41.6 C175.1,41.5 175.8,41.4 176.6,41.3 C177.5,41.2 178.4,41.1 179.5,41 C180.8,40.9 182,40.9 182.9,40.9 C183.7,40.9 184.3,40.9 184.9,40.8 L185.2,40.8 C185.9,40.8 186.9,40.7 187.5,40 C187.8,39.7 187.9,39.3 187.9,38.8 C188.2,37.4 186.7,37.1 185.7,36.8 L185.7,36.8 Z" id="Shape"></path>
            </g>
            <path d="M200.7,110.4 C198.2,108.7 192.7,107.9 186.9,107.4 C184,107.2 181,106.9 178.3,106.8 C175.6,106.7 173.1,106.6 171.3,106.4 C168.4,106.3 166.2,106.1 164.6,105.9 C163.2,105.7 166.4,105.8 171.3,106.4 C173.5,106.5 176,106.5 179,106.5 C175.2,105.3 171.5,104 168.8,103 C166.9,103.1 165,103.1 163,103.1 C161.9,103.1 160.8,103.2 159.8,103.2 C158.7,103.2 157.7,103.3 156.6,103.4 C154.5,103.6 152.4,103.7 150.3,103.9 C148.2,104.1 146.1,104.2 144,104.3 C142.9,104.3 141.9,104.4 140.8,104.4 C139.7,104.5 138.7,104.5 137.6,104.6 C134.5,104.7 127.8,105.8 124.7,105.5 C124.7,105.5 127,105.2 130.6,104.7 C132.4,104.5 134.4,104.2 136.6,103.9 C138.8,103.6 141.1,103.3 143.5,103.1 C148.2,102.7 152.9,102.2 156.4,101.9 C158.2,101.7 159.6,101.6 160.7,101.6 C161.7,101.5 162.3,101.5 162.3,101.5 C162,101.5 161.6,101.4 161.3,101.3 L160.4,101.3 L158.1,101.3 C156.2,101.4 153.8,101.5 151.3,101.6 L141.3,102 C140.2,102.1 139,102.3 137.9,102.3 C137.9,102.3 138.8,102.2 139.6,102.2 C140.5,102.1 141.3,102.1 141.3,102.1 C144.2,101.8 147,101.1 150.2,100.6 C152.2,100.4 154.5,100.7 156.5,100.6 C158.1,100.5 159.7,101 161.2,101.4 L164.2,101.4 C164.5,101.3 164.8,101.2 165.1,101.2 L165.1,101.2 C164.4,100.5 162.3,99.8 159.5,99.2 C156.7,98.7 153.1,98.3 149.5,98.1 C145.9,97.9 142.2,97.7 139.2,97.8 C136.2,97.9 133.8,98.2 132.8,98.5 C129.6,99.4 127,102.4 123.4,103.3 C122.2,103.6 121.1,103.2 120.2,104 C120.2,104.4 119.8,104.8 119.4,105.2 C117,105.9 114.3,105 112.7,106.5 C111.5,107.2 106.5,101.9 106.5,103.1 C106.4,107.5 106.5,104.3 103.3,104.7 C102.9,104.7 102.1,106.7 101.3,106.7 C98.5,106.3 98.1,107.9 95.4,109.1 C93.4,110.3 92.1,110.3 90.8,110.5 C89.5,110.7 88.4,111 86.9,112.9 C86.7,113.1 85.3,114.1 83.9,114.9 C83.2,115.3 82.5,115.8 82,116.1 C81.5,116.4 81.2,116.6 81.2,116.6 C76.6,117.7 74.5,120.7 70,119 C68.4,121 66.1,121.7 63.6,122.3 C62.4,122.6 61.1,122.8 59.8,123.1 C58.6,123.4 57.4,123.8 56.4,124.4 C54.4,125.5 52.7,125.8 51,125.7 C49.3,125.7 47.5,125.5 45.3,125.5 C44.1,125.7 43.4,126.3 42.5,126 C41.6,125.8 40.9,128 39.7,128.3 L39.4,127.1 C39,127.2 38.2,127.4 37.8,127.5 C37.4,127.6 37.3,127.2 37.2,126.8 C37,126 36.8,125.2 35.9,125.1 C34.1,125.3 32.3,125.7 30.6,126.3 C29.3,127.6 28.1,129.2 27,130.7 C27.2,131.2 27.4,131.7 27.4,132.2 L26.5,133.8 C26.9,134.9 27.6,135.9 27.9,136.7 C28.8,138.1 29.3,139.7 29.8,141.3 C30.3,142.9 30.9,144.3 32,145.4 C32.6,146 34.9,144.8 36.7,145.6 C37.2,145.9 37.2,147.1 37.6,148.2 C38.9,147.4 39.6,148.5 39.6,149.7 C39.9,149.6 40.3,149.5 40.3,149.5 C40.4,149.9 40.8,151 40.8,151 C42.7,150.7 44.9,150.7 46.9,150.4 C48.9,150.1 50.8,149.6 52.1,148.1 C52.7,147.6 53.5,146.2 54,145.3 C54.3,144.9 55.4,145.1 55.8,145 C55.9,143.8 55.3,142.7 55.1,141.5 C55.8,141.5 56.8,141.4 57.8,141.3 C58.8,141.2 59.8,141 60.7,140.7 C62.4,140.1 63.5,139.1 62.7,137.2 C64.8,136.5 64.5,134.5 66.7,133.5 C68.1,132.8 69.7,132 71.4,131.3 C72.3,130.9 73.1,130.5 74,130.1 C74.9,129.7 75.8,129.4 76.8,129 C78.8,128.1 80.7,127.5 82.7,126.8 C83.4,126.5 84.1,126.3 84.8,126 C88.5,124.8 92.1,123.9 95.5,123.1 C98.9,122.3 102.3,121.8 105.6,121.2 C107.3,120.9 108.9,120.5 110.6,120.2 C112.3,119.9 113.9,119.5 115.6,119.1 C119,118.3 122.4,117.1 126,115.6 C129.7,114.2 133.5,113 137.3,112 C139.2,111.5 141.1,111 143.1,110.7 C145,110.4 147,110.1 148.9,109.9 C152.7,109.4 156.5,109.1 160.2,108.9 C163.9,108.9 167.4,108.9 170.8,109.1 C174.2,109.3 177.4,109.4 180.3,109.7 C183.3,110.1 186,110.4 188.4,110.8 C193.2,111.5 196.8,112.1 198.7,112.3 L200.7,110.4 L200.7,110.4 Z" id="Shape" fill="#FF8908" sketch:type="MSShapeGroup"></path>
            <path d="M198.8,103.1 C196.3,102.2 190.8,102 185,102 C182.1,102 179.1,102 176.4,102.1 C173.7,102.2 171.2,102.3 169.4,102.3 C166.5,102.4 164.4,102.5 162.7,102.4 C161.3,102.3 164.5,102.2 169.4,102.3 C171.6,102.2 174.1,102 177.1,101.9 C173.3,101.4 169.6,100.9 166.9,100.4 C165,100.6 163.1,100.7 161.1,100.9 C160,101 159,101.1 157.9,101.2 C156.8,101.3 155.8,101.5 154.7,101.6 C152.6,101.9 150.5,102.1 148.4,102.4 C146.3,102.7 144.2,102.9 142.1,103.2 C141,103.3 140,103.4 138.9,103.6 C137.8,103.7 136.8,103.9 135.7,104 C132.6,104.4 126,105.7 122.9,105.8 C122.9,105.8 125.2,105.4 128.7,104.7 C130.4,104.4 132.5,104 134.6,103.6 C136.8,103.2 139.1,102.8 141.4,102.5 C146.1,101.8 150.7,101.2 154.2,100.7 C155.9,100.4 157.4,100.2 158.4,100.2 C159.4,100.1 160,100 160,100 L159,100 C159,100 158.7,100 158.2,100.1 C157.7,100.1 156.9,100.2 156,100.3 C154.2,100.5 151.7,100.8 149.2,101 C144.3,101.5 139.3,102.1 139.3,102.1 C138.2,102.3 137.1,102.5 135.9,102.6 C135.9,102.6 136.7,102.5 137.6,102.3 C138.4,102.2 139.3,102.1 139.3,102.1 C142.2,101.7 145,101 148.1,100.4 C150.1,100.1 152.3,100.1 154.3,99.9 C155.9,99.7 157.4,99.9 159,100 L162,99.8 C162.3,99.7 162.6,99.7 162.9,99.6 L162.9,99.6 C162.2,99.2 160.2,98.9 157.4,98.7 C154.6,98.6 151.1,98.7 147.5,98.8 C143.9,98.9 140.3,99.1 137.3,99.4 C134.3,99.8 132,100.1 131,100.4 C127.8,101.3 125.2,103.4 121.6,104.3 C120.4,104.6 119.3,104.5 118.5,105.1 C118.5,105.4 118,105.6 117.6,105.9 C115.3,106.6 112.7,106.3 111,107.5 C109.8,108.1 105.2,105.2 105.1,106 C104.8,108.9 105,106.8 101.9,107.4 C101.5,107.4 100.6,108.8 99.9,108.9 C97.3,109 96.8,110 94.1,111.1 C92.1,112.1 90.8,112.3 89.6,112.6 C88.4,112.9 87.2,113.3 85.6,114.7 C85.4,114.9 84,115.7 82.6,116.4 C81.9,116.8 81.2,117.2 80.7,117.4 C80.2,117.7 79.9,117.9 79.9,117.9 C75.4,119.3 73.2,121.6 69,121.1 C67.3,122.7 65,123.6 62.6,124.3 C61.4,124.7 60.2,125 59,125.4 C57.8,125.8 56.7,126.3 55.7,126.8 C53.7,127.9 52.1,128.3 50.5,128.6 C48.9,128.9 47.3,129 45.3,129.4 C44.2,129.8 43.5,130.3 42.7,130.2 C41.9,130.2 41,131.9 39.9,132.3 L39.8,131.5 C39.4,131.6 38.7,131.9 38.3,132 C37.9,132.1 37.9,131.9 37.9,131.6 C37.8,131.1 37.8,130.6 37,130.6 C35.4,131 33.8,131.7 32.2,132.4 C30.9,133.6 29.7,134.9 28.5,136.2 C28.6,136.5 28.7,136.9 28.6,137.2 L27.6,138.5 C27.8,139.3 28.3,139.8 28.4,140.4 C29,141.2 29.2,142.3 29.4,143.4 C29.6,144.5 29.9,145.4 30.7,146 C31.1,146.3 33.4,144.9 34.9,145.1 C35.3,145.2 35.1,146.1 35.3,146.8 C36.6,146 37.1,146.6 36.9,147.5 C37.2,147.4 37.6,147.2 37.6,147.2 C37.7,147.5 37.8,148.2 37.8,148.2 C39.6,147.5 41.7,147.1 43.6,146.4 C45.5,145.8 47.4,145 48.8,143.7 C49.4,143.2 50.4,142.1 51,141.4 C51.3,141 52.4,141 52.7,140.9 C53,140 52.5,139.4 52.4,138.6 C53.1,138.4 54,138.2 54.9,137.9 C55.9,137.7 56.8,137.4 57.7,137 C59.4,136.3 60.6,135.4 60,134.2 C62.1,133.3 62,132 64.2,131 C65.6,130.3 67.2,129.5 69,128.7 C69.9,128.3 70.7,127.9 71.6,127.5 C72.5,127.1 73.4,126.8 74.4,126.4 C76.4,125.5 78.3,124.8 80.3,124.1 C81,123.8 81.7,123.5 82.4,123.3 C86.1,122 89.7,120.9 93.1,119.9 C96.5,118.9 99.9,118.2 103.2,117.4 C104.9,117 106.5,116.6 108.1,116.1 C109.8,115.7 111.4,115.3 113.1,114.8 C116.5,113.9 119.9,112.8 123.6,111.4 C127.3,110.1 131.1,109 134.9,108 C136.8,107.5 138.7,107 140.7,106.7 C142.6,106.3 144.6,106 146.5,105.7 C150.3,105.1 154.1,104.6 157.8,104.2 C161.5,103.9 165,103.7 168.4,103.6 C171.8,103.5 175,103.4 177.9,103.4 C180.9,103.5 183.6,103.6 186,103.7 C190.8,103.9 194.4,104.1 196.3,104.1 L198.8,103.1 L198.8,103.1 Z" id="Shape" fill="#FFFFFF" sketch:type="MSShapeGroup"></path>
            <path d="M197.7,101.8 C195.2,100.9 189.7,100.7 183.9,100.7 C181,100.7 178,100.7 175.3,100.8 C172.6,100.9 170.1,101 168.3,101 C165.4,101.1 163.3,101.2 161.6,101.1 C160.2,101 163.4,100.9 168.3,101 C170.5,100.9 173,100.7 176,100.6 C172.2,100.1 168.5,99.6 165.8,99.1 C163.9,99.3 162,99.4 160,99.6 C158.9,99.7 157.9,99.8 156.8,99.9 C155.7,100 154.7,100.2 153.6,100.3 C151.5,100.6 149.4,100.8 147.3,101.1 C145.2,101.4 143.1,101.6 141,101.9 C139.9,102 138.9,102.1 137.8,102.3 C136.7,102.4 135.7,102.6 134.6,102.7 C131.5,103.1 124.9,104.4 121.8,104.5 C121.8,104.5 124.1,104.1 127.6,103.4 C129.3,103.1 131.4,102.7 133.5,102.3 C135.7,101.9 138,101.5 140.3,101.2 C145,100.5 149.6,99.9 153.1,99.4 C154.8,99.1 156.3,98.9 157.3,98.9 C158.3,98.8 158.9,98.7 158.9,98.7 L157.9,98.7 C157.9,98.7 157.6,98.7 157.1,98.8 C156.6,98.8 155.8,98.9 154.9,99 C153.1,99.2 150.6,99.5 148.1,99.7 C143.2,100.2 138.2,100.8 138.2,100.8 C137.1,101 136,101.2 134.8,101.3 C134.8,101.3 135.6,101.2 136.5,101 C137.3,100.9 138.2,100.8 138.2,100.8 C141.1,100.4 143.9,99.7 147,99.1 C149,98.8 151.2,98.8 153.2,98.6 C154.8,98.4 156.3,98.6 157.9,98.7 L160.9,98.5 C161.2,98.4 161.5,98.4 161.8,98.3 L161.8,98.3 C161.1,97.9 159.1,97.6 156.3,97.4 C153.5,97.3 150,97.4 146.4,97.5 C142.8,97.6 139.2,97.8 136.2,98.1 C133.2,98.5 130.9,98.8 129.9,99.1 C126.7,100 124.1,102.1 120.5,103 C119.3,103.3 118.2,103.2 117.4,103.8 C117.4,104.1 116.9,104.3 116.5,104.6 C114.2,105.3 111.6,105 109.9,106.2 C108.7,106.8 104.1,103.9 104,104.7 C103.7,107.6 103.9,105.5 100.8,106.1 C100.4,106.1 99.5,107.5 98.8,107.6 C96.2,107.7 95.7,108.7 93,109.8 C91,110.8 89.7,111 88.5,111.3 C87.3,111.6 86.1,112 84.5,113.4 C84.3,113.6 82.9,114.4 81.5,115.1 C80.8,115.5 80.1,115.9 79.6,116.1 C79.1,116.4 78.8,116.6 78.8,116.6 C74.3,118 72.1,120.3 67.9,119.8 C66.2,121.4 63.9,122.3 61.5,123 C60.3,123.4 59.1,123.7 57.9,124.1 C56.7,124.5 55.6,125 54.6,125.5 C52.6,126.6 51,127 49.4,127.3 C47.8,127.6 46.2,127.7 44.2,128.1 C43.1,128.5 42.4,129 41.6,128.9 C40.8,128.9 39.9,130.6 38.8,131 L38.7,130.2 C38.3,130.3 37.6,130.6 37.2,130.7 C36.8,130.8 36.8,130.6 36.8,130.3 C36.7,129.8 36.7,129.3 35.9,129.3 C34.3,129.7 32.7,130.4 31.1,131.1 C29.8,132.3 28.6,133.6 27.4,134.9 C27.5,135.2 27.6,135.6 27.5,135.9 L26.5,137.2 C26.7,138 27.2,138.5 27.3,139.1 C27.9,139.9 28.1,141 28.3,142.1 C28.5,143.2 28.8,144.1 29.6,144.7 C30,145 32.3,143.6 33.8,143.8 C34.2,143.9 34,144.8 34.2,145.5 C35.5,144.7 36,145.3 35.8,146.2 C36.1,146.1 36.5,145.9 36.5,145.9 C36.6,146.2 36.7,146.9 36.7,146.9 C38.5,146.2 40.6,145.8 42.5,145.1 C44.4,144.5 46.3,143.7 47.7,142.4 C48.3,141.9 49.3,140.8 49.9,140.1 C50.2,139.7 51.3,139.7 51.6,139.6 C51.9,138.7 51.4,138.1 51.3,137.3 C52,137.1 52.9,136.9 53.8,136.6 C54.8,136.4 55.7,136.1 56.6,135.7 C58.3,135 59.5,134.1 58.9,132.9 C61,132 60.9,130.7 63.1,129.7 C64.5,129 66.1,128.2 67.9,127.4 C68.8,127 69.6,126.6 70.5,126.2 C71.4,125.8 72.3,125.5 73.3,125.1 C75.3,124.2 77.2,123.5 79.2,122.8 C79.9,122.5 80.6,122.2 81.3,122 C85,120.7 88.6,119.6 92,118.6 C95.4,117.6 98.8,116.9 102.1,116.1 C103.8,115.7 105.4,115.3 107,114.8 C108.7,114.4 110.3,114 112,113.5 C115.4,112.6 118.8,111.5 122.5,110.1 C126.2,108.8 130,107.7 133.8,106.7 C135.7,106.2 137.6,105.7 139.6,105.4 C141.5,105 143.5,104.7 145.4,104.4 C149.2,103.8 153,103.3 156.7,102.9 C160.4,102.6 163.9,102.4 167.3,102.3 C170.7,102.2 173.9,102.1 176.8,102.1 C179.8,102.2 182.5,102.3 184.9,102.4 C189.7,102.6 193.3,102.8 195.2,102.8 L197.7,101.8 L197.7,101.8 Z" id="Shape" fill="#314354" sketch:type="MSShapeGroup"></path>
        </g>
    </g>
</svg>