<?xml version="1.0" encoding="utf-8"?>
<!-- Generator: Adobe Illustrator 19.1.0, SVG Export Plug-In . SVG Version: 6.00 Build 0)  -->
<svg version="1.1" id="Layer_1" xmlns="http://www.w3.org/2000/svg" xmlns:xlink="http://www.w3.org/1999/xlink" x="0px" y="0px"
	 viewBox="0 0 553.5 130.2" style="enable-background:new 0 0 553.5 130.2;" xml:space="preserve">
<style type="text/css">
	.st0{fill:#FFFFFF;}
	.st1{fill-rule:evenodd;clip-rule:evenodd;fill:#F58220;}
</style>
<g id="World_Championships">
	<polygon class="st0" points="1.7,104.2 10.5,104.2 13.6,118.4 18.2,104.2 26.8,104.2 31.4,118.4 34.6,104.2 43.2,104.2 36.7,129.6 
		27.7,129.6 22.5,113.6 17.3,129.6 8.3,129.6 	"/>
	<path class="st0" d="M44.4,117c0-4.1,1.4-7.4,4-9.7c2.7-2.3,6.5-3.5,11.3-3.5c4.9,0,8.7,1.1,11.4,3.4c2.7,2.3,4,5.4,4,9.5
		c0,3-0.6,5.4-1.8,7.3c-1.2,1.9-2.9,3.4-5.1,4.4c-2.2,1.1-5,1.6-8.2,1.6c-3.3,0-6.1-0.5-8.3-1.4c-2.2-0.9-4-2.4-5.3-4.3
		C45.1,122.4,44.4,119.9,44.4,117L44.4,117z M53.6,117c0,2.6,0.6,4.4,1.7,5.5c1.1,1.1,2.6,1.7,4.5,1.7c2,0,3.5-0.5,4.6-1.6
		c1.1-1.1,1.6-3.1,1.6-5.9c0-2.4-0.6-4.1-1.7-5.2c-1.1-1.1-2.7-1.6-4.6-1.6c-1.8,0-3.3,0.6-4.4,1.7C54.1,112.5,53.6,114.4,53.6,117z
		"/>
	<path class="st0" d="M80.2,129.6v-25.4h15.3c2.8,0,5,0.2,6.5,0.6c1.5,0.4,2.7,1.2,3.6,2.3c0.9,1.1,1.4,2.5,1.4,4.1
		c0,1.4-0.4,2.6-1.1,3.6c-0.7,1-1.7,1.8-2.9,2.5c-0.8,0.4-1.9,0.7-3.2,1c1.1,0.3,1.9,0.6,2.4,0.9c0.3,0.2,0.8,0.7,1.5,1.3
		c0.6,0.7,1.1,1.2,1.3,1.6l4.4,7.4H99l-4.9-7.8c-0.6-1-1.2-1.7-1.7-2c-0.7-0.4-1.4-0.6-2.2-0.6h-0.8v10.3H80.2L80.2,129.6z
		 M89.4,114.5h3.9c0.4,0,1.2-0.1,2.4-0.3c0.6-0.1,1.1-0.4,1.5-0.8c0.4-0.4,0.6-0.9,0.6-1.5c0-0.8-0.3-1.4-0.9-1.9
		c-0.6-0.4-1.7-0.7-3.4-0.7h-4V114.5z"/>
	<polygon class="st0" points="112.3,104.2 121.5,104.2 121.5,123.4 135.8,123.4 135.8,129.6 112.3,129.6 	"/>
	<path class="st0" d="M140.1,104.2h13.6c2.7,0,4.9,0.3,6.5,0.9c1.7,0.6,3,1.5,4.1,2.7c1.1,1.2,1.9,2.5,2.3,4.1
		c0.5,1.5,0.7,3.2,0.7,4.9c0,2.7-0.4,4.8-1.1,6.3c-0.7,1.5-1.7,2.7-3,3.8c-1.3,1-2.7,1.7-4.1,2c-2,0.5-3.8,0.7-5.5,0.7h-13.6V104.2
		L140.1,104.2z M149.3,110v13.9h2.2c1.9,0,3.3-0.2,4.1-0.5c0.8-0.4,1.4-1,1.9-1.9c0.5-0.9,0.7-2.4,0.7-4.4c0-2.7-0.5-4.5-1.5-5.5
		c-1-1-2.7-1.5-5.1-1.5H149.3z"/>
	<path class="st0" d="M205.8,119.3l8,2.1c-0.5,1.9-1.4,3.5-2.5,4.8c-1.2,1.3-2.6,2.3-4.3,2.9c-1.7,0.7-3.9,1-6.6,1
		c-3.2,0-5.9-0.4-7.9-1.2c-2-0.8-3.8-2.2-5.3-4.2c-1.5-2-2.2-4.6-2.2-7.8c0-4.2,1.3-7.4,3.9-9.7c2.6-2.3,6.3-3.4,11.1-3.4
		c3.7,0,6.7,0.6,8.8,1.9c2.1,1.3,3.7,3.3,4.8,6l-8.1,1.5c-0.3-0.8-0.6-1.3-0.9-1.7c-0.5-0.6-1.1-1.1-1.9-1.4
		c-0.7-0.3-1.6-0.5-2.5-0.5c-2.1,0-3.7,0.7-4.8,2.1c-0.8,1.1-1.3,2.7-1.3,5c0,2.8,0.5,4.7,1.5,5.8c1,1,2.4,1.6,4.2,1.6
		c1.8,0,3.1-0.4,4-1.3C204.8,122.1,205.4,120.9,205.8,119.3z"/>
	<polygon class="st0" points="218.3,104.2 227.5,104.2 227.5,113.1 237.5,113.1 237.5,104.2 246.7,104.2 246.7,129.6 237.5,129.6 
		237.5,119.4 227.5,119.4 227.5,129.6 218.3,129.6 	"/>
	<path class="st0" d="M271.1,125.4h-10.4l-1.4,4.2h-9.4l11.2-25.4h10l11.2,25.4h-9.6L271.1,125.4L271.1,125.4z M269.2,119.9
		l-3.3-9.1l-3.3,9.1H269.2z"/>
	<polygon class="st0" points="285,104.2 297.1,104.2 301.7,119.7 306.3,104.2 318.4,104.2 318.4,129.6 310.9,129.6 310.9,110.3 
		305.1,129.6 298.3,129.6 292.5,110.3 292.5,129.6 285,129.6 	"/>
	<path class="st0" d="M324.2,104.2h15.2c3.3,0,5.8,0.7,7.5,2c1.7,1.3,2.5,3.3,2.5,5.8c0,2.6-0.9,4.6-2.7,6c-1.8,1.4-4.6,2.2-8.2,2.2
		h-5v9.4h-9.2V104.2L324.2,104.2z M333.4,115.1h2.2c1.8,0,3-0.3,3.7-0.8c0.7-0.5,1.1-1.2,1.1-2c0-0.8-0.3-1.5-0.9-2
		c-0.6-0.6-1.8-0.8-3.5-0.8h-2.6V115.1z"/>
	<rect x="354.5" y="104.2" class="st0" width="9.2" height="25.4"/>
	<path class="st0" d="M369.1,117c0-4.1,1.4-7.4,4-9.7c2.7-2.3,6.5-3.5,11.3-3.5c4.9,0,8.7,1.1,11.4,3.4c2.7,2.3,4,5.4,4,9.5
		c0,3-0.6,5.4-1.8,7.3c-1.2,1.9-2.9,3.4-5.1,4.4c-2.2,1.1-5,1.6-8.2,1.6c-3.3,0-6.1-0.5-8.3-1.4c-2.2-0.9-4-2.4-5.3-4.3
		C369.8,122.4,369.1,119.9,369.1,117L369.1,117z M378.3,117c0,2.6,0.6,4.4,1.7,5.5c1.1,1.1,2.6,1.7,4.5,1.7c2,0,3.5-0.5,4.6-1.6
		c1.1-1.1,1.6-3.1,1.6-5.9c0-2.4-0.6-4.1-1.7-5.2c-1.1-1.1-2.7-1.6-4.6-1.6c-1.8,0-3.3,0.6-4.4,1.7
		C378.9,112.5,378.3,114.4,378.3,117z"/>
	<polygon class="st0" points="404.9,104.2 413.5,104.2 424.6,118.3 424.6,104.2 433.3,104.2 433.3,129.6 424.6,129.6 413.5,115.7 
		413.5,129.6 404.9,129.6 	"/>
	<path class="st0" d="M437.8,121.2l8.7-0.5c0.2,1.2,0.6,2.1,1.2,2.8c0.9,1,2.3,1.5,4,1.5c1.3,0,2.3-0.3,3-0.8
		c0.7-0.5,1.1-1.1,1.1-1.8c0-0.7-0.3-1.2-1-1.8c-0.7-0.5-2.2-1-4.7-1.5c-4-0.8-6.9-1.8-8.6-3.1c-1.7-1.3-2.6-2.9-2.6-4.9
		c0-1.3,0.4-2.5,1.3-3.7c0.9-1.2,2.2-2.1,4-2.7c1.8-0.7,4.2-1,7.3-1c3.8,0,6.7,0.6,8.7,1.8c2,1.2,3.2,3.1,3.6,5.8l-8.6,0.4
		c-0.2-1.1-0.7-2-1.5-2.5c-0.7-0.5-1.7-0.8-3-0.8c-1.1,0-1.9,0.2-2.4,0.6c-0.5,0.4-0.8,0.9-0.8,1.4c0,0.4,0.2,0.8,0.7,1.1
		c0.4,0.3,1.5,0.6,3.1,0.9c4,0.7,6.9,1.5,8.6,2.2c1.7,0.8,3,1.7,3.8,2.8c0.8,1.1,1.2,2.4,1.2,3.8c0,1.6-0.5,3.1-1.6,4.5
		c-1.1,1.4-2.5,2.4-4.4,3.1c-1.9,0.7-4.3,1.1-7.1,1.1c-5,0-8.5-0.8-10.5-2.5C439.1,125.9,438,123.8,437.8,121.2z"/>
	<polygon class="st0" points="469.3,104.2 478.5,104.2 478.5,113.1 488.5,113.1 488.5,104.2 497.7,104.2 497.7,129.6 488.5,129.6 
		488.5,119.4 478.5,119.4 478.5,129.6 469.3,129.6 	"/>
	<rect x="504.2" y="104.2" class="st0" width="9.2" height="25.4"/>
	<path class="st0" d="M519.9,104.2h15.2c3.3,0,5.8,0.7,7.5,2c1.7,1.3,2.5,3.3,2.5,5.8c0,2.6-0.9,4.6-2.7,6c-1.8,1.4-4.6,2.2-8.2,2.2
		h-5v9.4h-9.2V104.2L519.9,104.2z M529.1,115.1h2.2c1.8,0,3-0.3,3.7-0.8c0.7-0.5,1.1-1.2,1.1-2c0-0.8-0.3-1.5-0.9-2
		c-0.6-0.6-1.8-0.8-3.5-0.8h-2.6V115.1z"/>
</g>
<g id="Relay">
	<path class="st0" d="M21,92.2V1.2h53.8c10,0,17.6,0.7,22.9,2.2c5.3,1.5,9.5,4.2,12.8,8.3c3.2,4,4.8,8.9,4.8,14.7
		c0,5.1-1.2,9.4-3.7,13.1c-2.5,3.7-5.9,6.6-10.2,8.9c-2.8,1.4-6.5,2.6-11.3,3.6c3.8,1.1,6.6,2.2,8.4,3.4c1.2,0.7,2.9,2.3,5.2,4.8
		c2.3,2.5,3.8,4.3,4.5,5.7l15.6,26.4H87.3L70,64.4c-2.2-3.6-4.1-5.9-5.9-7c-2.3-1.4-5-2.1-7.9-2.1h-2.8v36.9H21L21,92.2z M53.4,38.1
		h13.6c1.5,0,4.3-0.4,8.5-1.2c2.1-0.4,3.9-1.3,5.3-2.9c1.3-1.5,2-3.3,2-5.3c0-2.9-1.1-5.2-3.2-6.8c-2.1-1.6-6.2-2.4-12-2.4H53.4
		V38.1z"/>
	<polygon class="st0" points="134.1,1.2 220.6,1.2 220.6,20.7 166.4,20.7 166.4,35.1 216.7,35.1 216.7,53.7 166.4,53.7 166.4,71.6 
		222.2,71.6 222.2,92.2 134.1,92.2 	"/>
	<polygon class="st0" points="239.6,1.2 271.9,1.2 271.9,69.8 322.3,69.8 322.3,92.2 239.6,92.2 	"/>
	<polygon class="st0" points="438,0.1 473.9,0.1 495,30.8 516.1,0.1 551.7,0.1 511.1,52.9 511.1,91 478.7,91 478.7,52.9 	"/>
	<path class="st1" d="M425.4,92.5l0.9-0.4h38.9L419.7,1.2h-40.8l-20.1,40.2l-25.6-18.3l0,0c-0.1-0.1-0.2-0.2-0.4-0.3
		c-2.4-1.7-6.4-0.2-8.9,3.3c-2.5,3.6-2.6,7.8-0.2,9.5c0.1,0.1,0.3,0.2,0.4,0.2l0,0l27.6,19.7l-18.2,36.5h37.8l0.4,0.1l0.1-0.1h0
		l0.8-2l6.2-15.1l29.6,21.2l0.1-0.1c0.2,0.2,0.3,0.3,0.5,0.4c2.4,1.7,6.4,0.2,8.9-3.4c2.5-3.6,2.6-7.8,0.2-9.5
		c-0.2-0.1-0.4-0.2-0.6-0.3L384.8,60l1-2.5c0,0,0,0,0,0h0l12.7-30.9L425.4,92.5z"/>
</g>
</svg>
