<svg id="Layer_1" xmlns="http://www.w3.org/2000/svg" viewBox="0 0 553.5 130.2"><style>.st0{fill:#FFFFFF;} .st1{fill-rule:evenodd;clip-rule:evenodd;fill:#F58220;}</style><g id="World_Championships"><path class="st0" d="M1.7 104.2h8.8l3.1 14.2 4.6-14.2h8.6l4.6 14.2 3.2-14.2h8.6l-6.5 25.4h-9l-5.2-16-5.2 16h-9zM44.4 117c0-4.1 1.4-7.4 4-9.7 2.7-2.3 6.5-3.5 11.3-3.5 4.9 0 8.7 1.1 11.4 3.4 2.7 2.3 4 5.4 4 9.5 0 3-.6 5.4-1.8 7.3-1.2 1.9-2.9 3.4-5.1 4.4-2.2 1.1-5 1.6-8.2 1.6-3.3 0-6.1-.5-8.3-1.4-2.2-.9-4-2.4-5.3-4.3-1.3-1.9-2-4.4-2-7.3zm9.2 0c0 2.6.6 4.4 1.7 5.5 1.1 1.1 2.6 1.7 4.5 1.7 2 0 3.5-.5 4.6-1.6 1.1-1.1 1.6-3.1 1.6-5.9 0-2.4-.6-4.1-1.7-5.2-1.1-1.1-2.7-1.6-4.6-1.6-1.8 0-3.3.6-4.4 1.7-1.2.9-1.7 2.8-1.7 5.4zM80.2 129.6v-25.4h15.3c2.8 0 5 .2 6.5.6 1.5.4 2.7 1.2 3.6 2.3.9 1.1 1.4 2.5 1.4 4.1 0 1.4-.4 2.6-1.1 3.6-.7 1-1.7 1.8-2.9 2.5-.8.4-1.9.7-3.2 1 1.1.3 1.9.6 2.4.9.3.2.8.7 1.5 1.3.6.7 1.1 1.2 1.3 1.6l4.4 7.4H99l-4.9-7.8c-.6-1-1.2-1.7-1.7-2-.7-.4-1.4-.6-2.2-.6h-.8v10.3h-9.2v.2zm9.2-15.1h3.9c.4 0 1.2-.1 2.4-.3.6-.1 1.1-.4 1.5-.8.4-.4.6-.9.6-1.5 0-.8-.3-1.4-.9-1.9-.6-.4-1.7-.7-3.4-.7h-4v5.2zM112.3 104.2h9.2v19.2h14.3v6.2h-23.5zM140.1 104.2h13.6c2.7 0 4.9.3 6.5.9 1.7.6 3 1.5 4.1 2.7 1.1 1.2 1.9 2.5 2.3 4.1.5 1.5.7 3.2.7 4.9 0 2.7-.4 4.8-1.1 6.3-.7 1.5-1.7 2.7-3 3.8-1.3 1-2.7 1.7-4.1 2-2 .5-3.8.7-5.5.7H140v-25.4h.1zm9.2 5.8v13.9h2.2c1.9 0 3.3-.2 4.1-.5.8-.4 1.4-1 1.9-1.9.5-.9.7-2.4.7-4.4 0-2.7-.5-4.5-1.5-5.5s-2.7-1.5-5.1-1.5h-2.3zM205.8 119.3l8 2.1c-.5 1.9-1.4 3.5-2.5 4.8-1.2 1.3-2.6 2.3-4.3 2.9-1.7.7-3.9 1-6.6 1-3.2 0-5.9-.4-7.9-1.2-2-.8-3.8-2.2-5.3-4.2s-2.2-4.6-2.2-7.8c0-4.2 1.3-7.4 3.9-9.7 2.6-2.3 6.3-3.4 11.1-3.4 3.7 0 6.7.6 8.8 1.9 2.1 1.3 3.7 3.3 4.8 6l-8.1 1.5c-.3-.8-.6-1.3-.9-1.7-.5-.6-1.1-1.1-1.9-1.4-.7-.3-1.6-.5-2.5-.5-2.1 0-3.7.7-4.8 2.1-.8 1.1-1.3 2.7-1.3 5 0 2.8.5 4.7 1.5 5.8 1 1 2.4 1.6 4.2 1.6 1.8 0 3.1-.4 4-1.3 1-.7 1.6-1.9 2-3.5zM218.3 104.2h9.2v8.9h10v-8.9h9.2v25.4h-9.2v-10.2h-10v10.2h-9.2zM271.1 125.4h-10.4l-1.4 4.2h-9.4l11.2-25.4h10l11.2 25.4h-9.6l-1.6-4.2zm-1.9-5.5l-3.3-9.1-3.3 9.1h6.6zM285 104.2h12.1l4.6 15.5 4.6-15.5h12.1v25.4h-7.5v-19.3l-5.8 19.3h-6.8l-5.8-19.3v19.3H285zM324.2 104.2h15.2c3.3 0 5.8.7 7.5 2 1.7 1.3 2.5 3.3 2.5 5.8 0 2.6-.9 4.6-2.7 6-1.8 1.4-4.6 2.2-8.2 2.2h-5v9.4h-9.2v-25.4h-.1zm9.2 10.9h2.2c1.8 0 3-.3 3.7-.8.7-.5 1.1-1.2 1.1-2s-.3-1.5-.9-2c-.6-.6-1.8-.8-3.5-.8h-2.6v5.6zM354.5 104.2h9.2v25.4h-9.2zM369.1 117c0-4.1 1.4-7.4 4-9.7 2.7-2.3 6.5-3.5 11.3-3.5 4.9 0 8.7 1.1 11.4 3.4 2.7 2.3 4 5.4 4 9.5 0 3-.6 5.4-1.8 7.3-1.2 1.9-2.9 3.4-5.1 4.4-2.2 1.1-5 1.6-8.2 1.6-3.3 0-6.1-.5-8.3-1.4-2.2-.9-4-2.4-5.3-4.3-1.3-1.9-2-4.4-2-7.3zm9.2 0c0 2.6.6 4.4 1.7 5.5 1.1 1.1 2.6 1.7 4.5 1.7 2 0 3.5-.5 4.6-1.6 1.1-1.1 1.6-3.1 1.6-5.9 0-2.4-.6-4.1-1.7-5.2-1.1-1.1-2.7-1.6-4.6-1.6-1.8 0-3.3.6-4.4 1.7-1.1.9-1.7 2.8-1.7 5.4zM404.9 104.2h8.6l11.1 14.1v-14.1h8.7v25.4h-8.7l-11.1-13.9v13.9h-8.6zM437.8 121.2l8.7-.5c.2 1.2.6 2.1 1.2 2.8.9 1 2.3 1.5 4 1.5 1.3 0 2.3-.3 3-.8.7-.5 1.1-1.1 1.1-1.8s-.3-1.2-1-1.8c-.7-.5-2.2-1-4.7-1.5-4-.8-6.9-1.8-8.6-3.1-1.7-1.3-2.6-2.9-2.6-4.9 0-1.3.4-2.5 1.3-3.7.9-1.2 2.2-2.1 4-2.7 1.8-.7 4.2-1 7.3-1 3.8 0 6.7.6 8.7 1.8 2 1.2 3.2 3.1 3.6 5.8l-8.6.4c-.2-1.1-.7-2-1.5-2.5-.7-.5-1.7-.8-3-.8-1.1 0-1.9.2-2.4.6-.5.4-.8.9-.8 1.4 0 .4.2.8.7 1.1.4.3 1.5.6 3.1.9 4 .7 6.9 1.5 8.6 2.2 1.7.8 3 1.7 3.8 2.8.8 1.1 1.2 2.4 1.2 3.8 0 1.6-.5 3.1-1.6 4.5s-2.5 2.4-4.4 3.1c-1.9.7-4.3 1.1-7.1 1.1-5 0-8.5-.8-10.5-2.5-2.2-1.5-3.3-3.6-3.5-6.2zM469.3 104.2h9.2v8.9h10v-8.9h9.2v25.4h-9.2v-10.2h-10v10.2h-9.2zM504.2 104.2h9.2v25.4h-9.2zM519.9 104.2h15.2c3.3 0 5.8.7 7.5 2 1.7 1.3 2.5 3.3 2.5 5.8 0 2.6-.9 4.6-2.7 6-1.8 1.4-4.6 2.2-8.2 2.2h-5v9.4H520v-25.4h-.1zm9.2 10.9h2.2c1.8 0 3-.3 3.7-.8.7-.5 1.1-1.2 1.1-2s-.3-1.5-.9-2c-.6-.6-1.8-.8-3.5-.8h-2.6v5.6z"/></g><g id="Relay"><path class="st0" d="M21 92.2v-91h53.8c10 0 17.6.7 22.9 2.2 5.3 1.5 9.5 4.2 12.8 8.3 3.2 4 4.8 8.9 4.8 14.7 0 5.1-1.2 9.4-3.7 13.1-2.5 3.7-5.9 6.6-10.2 8.9-2.8 1.4-6.5 2.6-11.3 3.6 3.8 1.1 6.6 2.2 8.4 3.4 1.2.7 2.9 2.3 5.2 4.8 2.3 2.5 3.8 4.3 4.5 5.7l15.6 26.4H87.3L70 64.4c-2.2-3.6-4.1-5.9-5.9-7-2.3-1.4-5-2.1-7.9-2.1h-2.8v36.9H21zm32.4-54.1H67c1.5 0 4.3-.4 8.5-1.2 2.1-.4 3.9-1.3 5.3-2.9 1.3-1.5 2-3.3 2-5.3 0-2.9-1.1-5.2-3.2-6.8-2.1-1.6-6.2-2.4-12-2.4H53.4v18.6zM134.1 1.2h86.5v19.5h-54.2v14.4h50.3v18.6h-50.3v17.9h55.8v20.6h-88.1zM239.6 1.2h32.3v68.6h50.4v22.4h-82.7zM438 .1h35.9L495 30.8 516.1.1h35.6l-40.6 52.8V91h-32.4V52.9z"/><path class="st1" d="M425.4 92.5l.9-.4h38.9L419.7 1.2h-40.8l-20.1 40.2-25.6-18.3c-.1-.1-.2-.2-.4-.3-2.4-1.7-6.4-.2-8.9 3.3-2.5 3.6-2.6 7.8-.2 9.5.1.1.3.2.4.2l27.6 19.7L333.5 92h37.8l.4.1.1-.1.8-2 6.2-15.1 29.6 21.2.1-.1c.2.2.3.3.5.4 2.4 1.7 6.4.2 8.9-3.4s2.6-7.8.2-9.5l-.6-.3L384.8 60l1-2.5 12.7-30.9 26.9 65.9z"/></g></svg>